<svg xmlns="http://www.w3.org/2000/svg" viewBox="0 0 48 48"
     role="img" aria-label="Legal Education">
  <rect width="48" height="48" rx="4" fill="#f1f5f9"/>
  <!-- Left book page -->
  <path d="M24,14 C24,14 17,12 11,14 L11,36 C17,34 24,36 24,36 Z"
    fill="none" stroke="#1e293b" stroke-width="2.2" stroke-linejoin="round"/>
  <!-- Right book page -->
  <path d="M24,14 C24,14 31,12 37,14 L37,36 C31,34 24,36 24,36 Z"
    fill="none" stroke="#1e293b" stroke-width="2.2" stroke-linejoin="round"/>
  <!-- Spine -->
  <line x1="24" y1="14" x2="24" y2="36" stroke="#1e293b" stroke-width="2"/>
  <!-- Lines on left page -->
  <line x1="14" y1="21" x2="21" y2="20" stroke="#475569" stroke-width="1.4" stroke-linecap="round"/>
  <line x1="14" y1="25" x2="21" y2="24" stroke="#475569" stroke-width="1.4" stroke-linecap="round"/>
  <line x1="14" y1="29" x2="21" y2="28" stroke="#475569" stroke-width="1.4" stroke-linecap="round"/>
  <!-- Lines on right page -->
  <line x1="27" y1="20" x2="34" y2="21" stroke="#475569" stroke-width="1.4" stroke-linecap="round"/>
  <line x1="27" y1="24" x2="34" y2="25" stroke="#475569" stroke-width="1.4" stroke-linecap="round"/>
  <line x1="27" y1="28" x2="34" y2="29" stroke="#475569" stroke-width="1.4" stroke-linecap="round"/>
</svg>
